<?xml version="1.0" standalone="no"?>
<!DOCTYPE svg PUBLIC "-//W3C//DTD SVG 20010904//EN"
 "http://www.w3.org/TR/2001/REC-SVG-20010904/DTD/svg10.dtd">
<svg version="1.0" xmlns="http://www.w3.org/2000/svg"
 width="48.000000pt" height="47.000000pt" viewBox="0 0 48.000000 47.000000"
 preserveAspectRatio="xMidYMid meet">

<g transform="translate(0.000000,47.000000) scale(0.100000,-0.100000)"
fill="#000000" stroke="none">
<path d="M165 409 c-48 -18 -102 -76 -115 -125 -36 -129 50 -244 182 -244 65
0 112 22 152 73 25 31 31 49 34 102 5 77 -20 130 -80 172 -44 30 -123 40 -173
22z m163 -46 c53 -42 74 -87 69 -150 -7 -98 -81 -159 -183 -151 -62 5 -107 35
-134 88 -23 46 -15 55 38 45 41 -8 65 -23 56 -36 -3 -5 7 -9 22 -9 26 0 26 -1
11 -18 -23 -25 -21 -35 2 -22 29 15 51 12 51 -7 0 -13 5 -12 26 8 31 29 64 90
64 119 0 29 -33 90 -64 119 l-26 24 0 -22 c0 -24 -6 -24 -55 -6 -16 7 -18 6
-7 -6 18 -20 15 -39 -8 -39 -12 0 -17 -5 -14 -14 4 -9 -10 -16 -48 -24 -29 -5
-56 -8 -60 -6 -10 6 25 74 48 96 64 57 148 62 212 11z m-24 -109 c19 -19 20
-36 4 -52 -16 -16 -43 -15 -58 3 -7 8 -21 15 -32 15 -10 0 -16 5 -13 10 3 6
13 10 21 10 9 0 22 7 30 15 19 19 29 19 48 -1z"/>
</g>
</svg>
