<?xml version="1.0" standalone="no"?>
<!DOCTYPE svg PUBLIC "-//W3C//DTD SVG 20010904//EN"
 "http://www.w3.org/TR/2001/REC-SVG-20010904/DTD/svg10.dtd">
<svg version="1.0" xmlns="http://www.w3.org/2000/svg"
 width="48.000000pt" height="47.000000pt" viewBox="0 0 48.000000 47.000000"
 preserveAspectRatio="xMidYMid meet">

<g transform="translate(0.000000,47.000000) scale(0.100000,-0.100000)"
fill="#000000" stroke="none">
<path d="M225 395 c-5 -2 -22 -6 -37 -9 -60 -13 -127 -102 -128 -170 0 -24 2
-27 15 -16 8 7 15 19 15 26 0 8 7 14 16 14 13 0 14 3 4 15 -21 25 -4 45 38 45
41 0 62 14 62 41 0 19 37 36 50 22 5 -4 10 -19 12 -33 3 -26 4 -26 86 -29 26
-1 31 -38 7 -47 -8 -4 -15 -13 -15 -20 0 -11 4 -12 19 -4 11 5 27 7 35 4 23
-9 20 23 -7 71 -30 54 -127 105 -172 90z m-35 -55 c0 -25 -27 -37 -43 -21 -9
10 -8 16 7 27 27 19 36 18 36 -6z m140 5 c10 -12 10 -19 2 -27 -16 -16 -42 -2
-42 22 0 24 22 26 40 5z"/>
<path d="M197 289 c-9 -6 -27 -7 -39 -3 -19 6 -20 4 -14 -27 3 -19 13 -39 22
-46 19 -14 38 -49 48 -87 9 -38 46 -32 59 9 5 17 20 42 34 56 13 14 27 43 30
64 l6 37 -31 -6 c-18 -4 -33 -3 -37 3 -8 14 -54 14 -78 0z"/>
<path d="M89 195 c-12 -19 -27 -35 -34 -35 -18 0 -24 -21 -13 -43 7 -14 3 -28
-16 -58 -14 -21 -26 -43 -26 -49 0 -16 108 -12 117 4 4 8 27 28 51 45 37 28
41 35 36 59 -12 45 -62 111 -87 112 -4 0 -17 -16 -28 -35z"/>
<path d="M319 182 c-23 -20 -32 -39 -36 -70 -4 -34 -2 -41 10 -36 10 3 18 -4
25 -23 7 -19 11 -22 11 -9 1 13 6 17 21 13 11 -3 20 -1 20 5 0 5 19 -7 42 -26
49 -42 68 -45 68 -11 0 14 -3 25 -7 25 -5 0 -16 14 -26 32 -13 22 -15 33 -6
38 8 6 8 9 -1 15 -8 5 -6 11 6 20 17 12 16 13 -5 20 -14 4 -20 12 -17 21 4 11
-4 14 -34 14 -29 0 -48 -7 -71 -28z m66 -55 c11 -33 11 -36 -2 -25 -8 7 -22
13 -30 14 -24 4 -34 19 -27 38 11 30 45 15 59 -27z"/>
<path d="M196 63 c-13 -14 -5 -22 28 -28 38 -8 76 1 76 16 0 6 -4 7 -10 4 -5
-3 -15 -3 -22 1 -17 10 -64 15 -72 7z"/>
</g>
</svg>
