<?xml version="1.0" standalone="no"?>
<!DOCTYPE svg PUBLIC "-//W3C//DTD SVG 20010904//EN"
 "http://www.w3.org/TR/2001/REC-SVG-20010904/DTD/svg10.dtd">
<svg version="1.0"
    xmlns="http://www.w3.org/2000/svg" width="48.000000pt" height="47.000000pt" viewBox="0 0 48.000000 47.000000" preserveAspectRatio="xMidYMid meet">

    <g transform="translate(0.000000,47.000000) scale(0.100000,-0.100000)" fill="#000000" stroke="none">
        <path d="M155 406 c-16 -7 -45 -28 -62 -46 -107 -110 -44 -299 108 -325 75
-13 168 36 205 106 32 63 10 183 -43 231 -49 45 -147 61 -208 34z m141 -25
c124 -56 138 -221 26 -292 -61 -39 -123 -40 -178 -3 -39 27 -63 52 -64 67 0
14 83 2 117 -16 18 -9 43 -17 58 -17 24 0 65 31 65 49 0 5 7 17 16 26 21 21
25 92 6 100 -7 3 -29 5 -47 5 -19 0 -37 5 -40 10 -11 17 -51 11 -70 -10 -14
-16 -29 -20 -59 -18 -22 2 -41 8 -43 15 -7 19 49 73 92 88 53 19 72 18 121 -4z"/>
    </g>
</svg>
