<?xml version="1.0" standalone="no"?>
<!DOCTYPE svg PUBLIC "-//W3C//DTD SVG 20010904//EN"
 "http://www.w3.org/TR/2001/REC-SVG-20010904/DTD/svg10.dtd">
<svg version="1.0" xmlns="http://www.w3.org/2000/svg"
 width="48.000000pt" height="47.000000pt" viewBox="0 0 48.000000 47.000000"
 preserveAspectRatio="xMidYMid meet">

<g transform="translate(0.000000,47.000000) scale(0.100000,-0.100000)"
fill="#000000" stroke="none">
<path d="M85 354 c6 -32 26 -58 111 -144 83 -85 101 -108 93 -122 -15 -28 10
-33 37 -7 l24 22 26 -24 c14 -13 30 -34 35 -47 10 -26 27 -25 43 2 8 14 8 20
-2 23 -8 3 -29 19 -48 36 l-35 30 21 22 c21 22 27 45 11 45 -6 0 -13 -5 -17
-11 -4 -7 -49 31 -114 96 -95 94 -112 107 -149 112 l-42 6 6 -39z m189 -123
c72 -72 87 -101 52 -101 -15 0 -166 153 -166 169 0 29 43 4 114 -68z"/>
</g>
</svg>
